@startuml Series/Filmes

class Usuario {
    - nome: String
    - classificacaoEtaria : Integer
    - infantil : Bool
    - MidiasFavoritas: Midia[]
    - Usuario Usuario(String nome, Integer classificacaoEtaria)
    + void setNome(String nome)
    + void setClassificacaoEtaria(Int classificacaoEtaria)
    + Secao navegarParaSecaoContinuarAssistindo (Secao secao)
}


class SecaoContinuarAssistindo{
    - colecaoMidiasAndamento: HashMap<Integer, Midia>()
    + HashMap<Integer, Midia> FiltrarMidiasEmAndamento(HashMap<Integer, Midia> colecaoMidiasAssistidas)
    + HashMap<Integer, Midia> listarMidiaEmAndamento(HashMap<Integer, Midia> colecaoMidiasAssistidas)
    + Midia continuarAssistindo(HashMap<Integer, Midia> colecaoMidiasAssistidas, id Integer)
}

class Midia {
    - video: byte[]
    - título: String
    - genero : Genero
    - estado : Estadp
    + Midia Midia(byte[] video, Genero genero)
    + void setVideo(byte[] video)
    + void setTitulo(String string)
    + void setGenero(Genero genero)
    + void setEstado(Estado estado)
}

enum Genero {
    ACAO, AVENTURA, CLASSICOS, CULT, COMEDIA, ROMANCE,
    SCI-FI, FANTASIA, SUSPENSE, ANIME, FAMILIA, MUSICA
}

enum Estado {
    NAO-INICIADO, ANDAMENTO, FINALIZADO
}

Usuario -- SecaoContinuarAssistindo
SecaoContinuarAssistindo -- Midia
Midia -- Genero
Midia -- Estado


@enduml